<?xml version="1.0" encoding="UTF-8" standalone="no"?>
<!-- Created with Inkscape (http://www.inkscape.org/) -->

<svg
   width="1031.6908"
   height="744.59662"
   id="svg2700"
   sodipodi:version="0.32"
   inkscape:version="1.2.1 (9c6d41e, 2022-07-14)"
   version="1.0"
   sodipodi:docname="IPA_canonical.svg"
   inkscape:output_extension="org.inkscape.output.svg.inkscape"
   xmlns:inkscape="http://www.inkscape.org/namespaces/inkscape"
   xmlns:sodipodi="http://sodipodi.sourceforge.net/DTD/sodipodi-0.dtd"
   xmlns:xlink="http://www.w3.org/1999/xlink"
   xmlns="http://www.w3.org/2000/svg"
   xmlns:svg="http://www.w3.org/2000/svg"
   xmlns:rdf="http://www.w3.org/1999/02/22-rdf-syntax-ns#"
   xmlns:cc="http://creativecommons.org/ns#"
   xmlns:dc="http://purl.org/dc/elements/1.1/">
  <defs
     id="defs2702">
    <inkscape:perspective
       id="perspective2999"
       inkscape:persp3d-origin="490 : 240 : 1"
       inkscape:vp_z="980 : 360 : 1"
       inkscape:vp_y="0 : 1000 : 0"
       inkscape:vp_x="0 : 360 : 1"
       sodipodi:type="inkscape:persp3d" />
    <marker
       style="overflow:visible"
       id="Arrow1Mend"
       refX="0"
       refY="0"
       orient="auto"
       inkscape:stockid="Arrow1Mend">
      <path
         transform="matrix(-0.4,0,0,-0.4,-4,0)"
         style="fill-rule:evenodd;stroke:#000000;stroke-width:1pt;marker-start:none"
         d="M 0,0 5,-5 -12.5,0 5,5 0,0 Z"
         id="path3248"
         inkscape:connector-curvature="0" />
    </marker>
    <inkscape:perspective
       sodipodi:type="inkscape:persp3d"
       inkscape:vp_x="0 : 526.18109 : 1"
       inkscape:vp_y="0 : 1000 : 0"
       inkscape:vp_z="744.09448 : 526.18109 : 1"
       inkscape:persp3d-origin="372.04724 : 350.78739 : 1"
       id="perspective3008" />
  </defs>
  <metadata
     id="metadata1">
    <rdf:RDF>
      <cc:Work
         rdf:about="">
        <dc:format>image/svg+xml</dc:format>
        <dc:type
           rdf:resource="http://purl.org/dc/dcmitype/StillImage" />
      </cc:Work>
    </rdf:RDF>
  </metadata>
  <g
     inkscape:groupmode="layer"
     id="layer4"
     inkscape:label="Trapezium Layer"
     style="display:inline"
     transform="translate(37.269806,16.779851)"
     sodipodi:insensitive="true">
    <path
       inkscape:connector-curvature="0"
       id="path4371"
       d="m 554.09951,689.81679 282.69441,0"
       style="display:inline;fill:none;fill-rule:evenodd;stroke:#000000;stroke-width:4;stroke-linecap:butt;stroke-linejoin:miter;stroke-miterlimit:4;stroke-dasharray:none;stroke-opacity:1" />
    <path
       style="display:inline;fill:none;fill-rule:evenodd;stroke:#000000;stroke-width:4;stroke-linecap:butt;stroke-linejoin:miter;stroke-miterlimit:4;stroke-dasharray:none;stroke-opacity:1"
       d="m 616.29349,251.70255 226.60156,0"
       id="path4188"
       inkscape:connector-curvature="0" />
    <path
       inkscape:connector-curvature="0"
       id="path4190"
       d="m 251.79921,251.70255 222.98796,0"
       style="display:inline;fill:none;fill-rule:evenodd;stroke:#000000;stroke-width:4;stroke-linecap:butt;stroke-linejoin:miter;stroke-miterlimit:4;stroke-dasharray:none;stroke-opacity:1" />
    <path
       inkscape:connector-curvature="0"
       id="path4208"
       d="m 689.09318,470.4355 146.00209,0"
       style="display:inline;fill:none;fill-rule:evenodd;stroke:#000000;stroke-width:4;stroke-linecap:butt;stroke-linejoin:miter;stroke-miterlimit:4;stroke-dasharray:none;stroke-opacity:1" />
    <path
       style="display:inline;fill:none;fill-rule:evenodd;stroke:#000000;stroke-width:4;stroke-linecap:butt;stroke-linejoin:miter;stroke-miterlimit:4;stroke-dasharray:none;stroke-opacity:1"
       d="m 420.30661,470.4355 130.89356,0"
       id="path4234"
       inkscape:connector-curvature="0" />
    <path
       style="opacity:1;fill:none;fill-rule:evenodd;stroke:#000000;stroke-width:4;stroke-linecap:butt;stroke-linejoin:miter;stroke-miterlimit:4;stroke-dasharray:none;stroke-opacity:1"
       d="M 644.2581,552.02734 590.12576,388.73714"
       id="path4315"
       inkscape:connector-curvature="0" />
    <path
       style="display:inline;fill:none;fill-rule:evenodd;stroke:#000000;stroke-width:4;stroke-linecap:butt;stroke-linejoin:miter;stroke-miterlimit:4;stroke-dasharray:none;stroke-opacity:1"
       d="m 689.73628,688.87482 -27,-81"
       id="path4317"
       inkscape:connector-curvature="0" />
    <path
       style="fill:none;fill-rule:evenodd;stroke:#000000;stroke-width:4;stroke-linecap:butt;stroke-linejoin:miter;stroke-miterlimit:4;stroke-dasharray:none;stroke-opacity:1"
       d="M 571.67377,332.98614 471.93957,31.897966"
       id="path4326"
       inkscape:connector-curvature="0" />
    <path
       style="fill:none;fill-rule:evenodd;stroke:#000000;stroke-width:4;stroke-linecap:butt;stroke-linejoin:miter;stroke-miterlimit:4;stroke-dasharray:none;stroke-opacity:1"
       d="m 909.95756,30.002675 1,661.988965 0,0"
       id="path4337"
       inkscape:connector-curvature="0" />
    <path
       style="fill:none;fill-rule:evenodd;stroke:#000000;stroke-width:4.00480461;stroke-linecap:butt;stroke-linejoin:miter;stroke-miterlimit:4;stroke-dasharray:none;stroke-opacity:1"
       d="M 33.173202,32.019078 471.91266,689.66588"
       id="path4339"
       inkscape:connector-curvature="0" />
    <path
       style="display:inline;fill:none;fill-rule:evenodd;stroke:#000000;stroke-width:4;stroke-linecap:butt;stroke-linejoin:miter;stroke-miterlimit:4;stroke-dasharray:none;stroke-opacity:1"
       d="m 112.60535,32.580973 304.59803,0"
       id="path4476"
       inkscape:connector-curvature="0" />
    <path
       inkscape:connector-curvature="0"
       id="path4247"
       d="m 549.51831,32.580973 266.61374,0"
       style="display:inline;fill:none;fill-rule:evenodd;stroke:#000000;stroke-width:4;stroke-linecap:butt;stroke-linejoin:miter;stroke-miterlimit:4;stroke-dasharray:none;stroke-opacity:1" />
  </g>
  <g
     inkscape:label="Vowel Layer"
     id="layer2"
     inkscape:groupmode="layer"
     transform="translate(49.867983,17.693317)"
     style="display:inline">
    <g
       style="font-style:normal;font-variant:normal;font-weight:normal;font-stretch:normal;font-size:60px;line-height:100%;font-family:'Bitstream Vera Sans';text-align:start;writing-mode:lr-tb;text-anchor:start;fill:#000000;fill-opacity:1;stroke:none"
       id="text4216">
      <path
         d="m 553.75226,359.392 23.23242,0 0,-0.23438 q 0,-6.29882 -2.37305,-9.52148 -2.37304,-3.19336 -7.00195,-3.19336 -3.54492,0 -5.83008,1.8457 -2.25586,1.875 -3.16406,5.53711 l -4.33594,0 q 1.28906,-5.12695 4.7461,-7.70508 3.48632,-2.57812 9.14062,-2.57812 6.82617,0 10.95703,4.51172 4.16016,4.48242 4.16016,11.92383 0,7.38281 -4.07227,11.89453 -4.07226,4.51172 -10.69336,4.51172 -7.06054,0 -10.83984,-4.36524 -3.7793,-4.33594 -3.92578,-12.62695 z m 6.35742,3.10547 q 0.17578,5.44922 2.31445,8.23242 2.10938,2.75391 6.09375,2.75391 3.72071,0 5.85938,-2.78321 2.13867,-2.7832 2.60742,-8.20312 l -16.875,0 z"
         style="font-style:normal;font-variant:normal;font-weight:normal;font-stretch:normal;font-size:60px;font-family:'DejaVu Serif';-inkscape-font-specification:'DejaVu Serif';text-align:start;text-anchor:start;fill:#000000;fill-opacity:1"
         id="path4254" />
    </g>
    <g
       id="g4251"
       transform="translate(0,-0.23908675)">
      <path
         style="font-size:59.9768486px;fill:#000000;fill-opacity:1;stroke:none"
         d="m 550.68433,251.02605 a 18,18 0 0 1 -18,18 18,18 0 0 1 -18,-18 18,18 0 0 1 18,-18 18,18 0 0 1 18,18 z"
         id="ellipse4229" />
    </g>
    <g
       id="g4308">
      <path
         style="font-size:59.9768486px;fill:#000000;fill-opacity:1;stroke:none"
         d="m 622.83337,469.52203 a 18,18 0 0 1 -18,18 18,18 0 0 1 -18,-18 18,18 0 0 1 18,-18 18,18 0 0 1 18,18 z"
         id="circle4260" />
    </g>
    <g
       id="g4264">
      <path
         style="font-size:59.9768486px;fill:#000000;fill-opacity:1;stroke:none"
         d="m 915.24683,250.78696 a 18,18 0 0 1 -18,18 18,18 0 0 1 -18,-18 18,18 0 0 1 18,-18 18,18 0 0 1 18,18 z"
         id="circle4320" />
      <g
         style="font-style:normal;font-variant:normal;font-weight:normal;font-stretch:normal;font-size:60px;line-height:100%;font-family:'Bitstream Vera Sans';text-align:start;writing-mode:lr-tb;text-anchor:start;fill:#000000;fill-opacity:1;stroke:none"
         id="text4338">
        <path
           d="m 941.71661,263.52576 q 4.33594,0 6.53321,-3.42774 2.22656,-3.42773 2.22656,-10.10742 0,-6.67969 -2.22656,-10.07812 -2.19727,-3.42774 -6.53321,-3.42774 -4.33593,0 -6.5625,3.42774 -2.19726,3.39843 -2.19726,10.07812 0,6.67969 2.22656,10.10742 2.22656,3.42774 6.5332,3.42774 z m 0,2.90039 q -6.79687,0 -10.92773,-4.48242 -4.13086,-4.51172 -4.13086,-11.95313 0,-7.44141 4.10156,-11.92383 4.13086,-4.48242 10.95703,-4.48242 6.82618,0 10.92774,4.48242 4.13086,4.48242 4.13086,11.92383 0,7.44141 -4.13086,11.95313 -4.10156,4.48242 -10.92774,4.48242 z"
           style="font-style:normal;font-variant:normal;font-weight:normal;font-stretch:normal;font-size:60px;font-family:'DejaVu Serif';-inkscape-font-specification:'DejaVu Serif';text-align:start;text-anchor:start;fill:#000000;fill-opacity:1"
           id="path4275" />
      </g>
    </g>
    <g
       transform="translate(-364.5,0.31649241)"
       id="g4192">
      <path
         style="font-size:59.9768486px;fill:#000000;fill-opacity:1;stroke:none"
         d="m 550.68433,251.02605 a 18,18 0 0 1 -18,18 18,18 0 0 1 -18,-18 18,18 0 0 1 18,-18 18,18 0 0 1 18,18 z"
         id="circle4194" />
      <g
         style="font-style:normal;font-variant:normal;font-weight:normal;font-stretch:normal;font-size:60px;line-height:100%;font-family:'Bitstream Vera Sans';text-align:start;writing-mode:lr-tb;text-anchor:start;fill:#000000;fill-opacity:1;stroke:none"
         id="text4196">
        <path
           d="m 503.27319,250.81561 -23.23242,0 0,0.23438 q 0,6.29883 2.37305,9.52148 2.37305,3.19336 7.00195,3.19336 3.54492,0 5.80078,-1.8457 2.28516,-1.875 3.19336,-5.53711 l 4.33594,0 q -1.28906,5.12695 -4.77539,7.70508 -3.45703,2.57812 -9.11133,2.57812 -6.82617,0 -10.98633,-4.48242 -4.13086,-4.51172 -4.13086,-11.95312 0,-7.38282 4.07227,-11.89454 4.07226,-4.51171 10.69336,-4.51171 7.06055,0 10.83984,4.36523 3.7793,4.33594 3.92578,12.62695 z m -6.35742,-3.10547 q -0.17578,-5.44921 -2.31445,-8.20312 -2.10938,-2.7832 -6.09375,-2.7832 -3.7207,0 -5.85938,2.7832 -2.13867,2.7832 -2.60742,8.20312 l 16.875,0 z"
           style="font-style:normal;font-variant:normal;font-weight:normal;font-stretch:normal;font-size:60px;font-family:'DejaVu Serif';-inkscape-font-specification:'DejaVu Serif';text-align:start;text-anchor:start;fill:#000000;fill-opacity:1"
           id="path4282" />
      </g>
    </g>
    <g
       id="g4252">
      <path
         style="font-size:59.9768486px;fill:#000000;fill-opacity:1;stroke:none"
         d="m 915.24683,469.52203 a 18,18 0 0 1 -18,18 18,18 0 0 1 -18,-18 18,18 0 0 1 18,-18 18,18 0 0 1 18,18 z"
         id="circle4216" />
      <g
         style="font-style:normal;font-variant:normal;font-weight:normal;font-stretch:normal;font-size:60px;line-height:100%;font-family:'Bitstream Vera Sans';text-align:start;writing-mode:lr-tb;text-anchor:start;fill:#000000;fill-opacity:1;stroke:none"
         id="text4241">
        <path
           d="m 926.65802,462.51474 q 1.14258,-4.98047 4.39453,-7.58789 3.25195,-2.60742 8.4082,-2.60742 6.79688,0 10.92774,4.48242 4.13086,4.51172 4.13086,11.95312 0,7.47071 -4.13086,11.95313 -4.13086,4.45312 -10.92774,4.45312 -2.95898,0 -5.88867,-0.70312 -2.92968,-0.67383 -5.88867,-2.08008 l 0,-7.96875 3.13477,0 q 0.61523,4.10156 2.69531,5.97656 2.05078,1.875 5.88867,1.875 4.36524,0 6.5918,-3.36914 2.22656,-3.39843 2.22656,-10.13672 0,-6.73828 -2.22656,-10.13671 -2.19727,-3.39844 -6.5918,-3.39844 -3.48633,0 -5.56641,1.8164 -2.08007,1.81641 -2.84179,5.47852 l -4.33594,0 z"
           style="font-style:normal;font-variant:normal;font-weight:normal;font-stretch:normal;font-size:60px;font-family:'DejaVu Serif';-inkscape-font-specification:'DejaVu Serif';text-align:start;text-anchor:start;fill:#228833;fill-opacity:1;stroke-width:4;stroke-dasharray:none"
           id="path4289" />
      </g>
      <g
         style="font-style:normal;font-variant:normal;font-weight:normal;font-stretch:normal;font-size:60px;line-height:100%;font-family:'Bitstream Vera Sans';text-align:start;writing-mode:lr-tb;text-anchor:start;fill:#000000;fill-opacity:1;stroke:none"
         id="text4247">
        <path
           d="m 852.83569,453.16904 11.45508,28.00781 3.54492,0 0,3.13476 -14.32617,0 0,-3.13476 4.98047,0 -8.75977,-21.41602 -8.75976,21.41602 4.6582,0 0,3.13476 -11.68945,0 0,-3.13476 3.48633,0 11.45508,-28.00781 3.95507,0 z"
           style="font-style:normal;font-variant:normal;font-weight:normal;font-stretch:normal;font-size:60px;font-family:'DejaVu Serif';-inkscape-font-specification:'DejaVu Serif';text-align:start;text-anchor:start;fill:#000000;fill-opacity:1"
           id="path4292" />
      </g>
    </g>
    <g
       id="g4284">
      <path
         style="font-size:59.9768486px;fill:#000000;fill-opacity:1;stroke:none"
         d="m 331.30228,469.52203 a 18,18 0 0 1 -18,18 18,18 0 0 1 -18,-18 18,18 0 0 1 18,-18 18,18 0 0 1 18,18 z"
         id="circle4228" />
      <g
         style="font-style:normal;font-variant:normal;font-weight:normal;font-stretch:normal;font-size:60px;line-height:100%;font-family:'Bitstream Vera Sans';text-align:start;writing-mode:lr-tb;text-anchor:start;fill:#000000;fill-opacity:1;stroke:none"
         id="text4280">
        <path
           d="m 260.21928,460.58115 q 0,-3.7793 2.8711,-5.77149 2.87109,-1.96289 8.61328,-1.96289 1.58203,0 4.62891,0.46875 3.04687,0.49805 6.32812,1.40625 l 0,6.47461 -3.16406,0 q -0.35156,-2.60742 -2.46094,-3.92578 -2.10937,-1.31836 -4.86328,-1.31836 -6.82617,0 -6.82617,4.89258 0,5.5957 7.52929,5.5957 l 2.72461,0 0,3.07617 -2.69531,0 q -4.62891,0 -6.88476,1.81641 -2.16797,1.75781 -2.16797,5.15625 0,2.31445 1.55273,3.7793 2.54883,2.40234 6.70899,2.40234 3.39843,0 5.85937,-1.55273 2.46094,-1.55274 2.75391,-4.54102 l 3.16406,0 0,6.76758 q -3.10547,1.05469 -6.26953,1.58203 -3.04688,0.52734 -5.39063,0.52734 -6.5625,0 -10.16601,-2.31445 -3.57422,-2.31445 -3.54492,-6.70898 0,-3.95508 3.07617,-6.24024 2.08008,-1.58203 5.5957,-2.34375 -2.40234,-0.55664 -3.98437,-1.58203 -2.98829,-1.96289 -2.98829,-5.68359 z"
           style="font-style:normal;font-variant:normal;font-weight:normal;font-stretch:normal;font-size:60px;font-family:'DejaVu Serif';-inkscape-font-specification:'DejaVu Serif';text-align:start;text-anchor:start;fill:#000000;fill-opacity:1"
           id="path4299" />
      </g>
    </g>
    <g
       id="g4416">
      <path
         style="font-size:59.9768486px;fill:#000000;fill-opacity:1;stroke:none"
         d="m 916.74945,688.90332 a 18,18 0 0 1 -18,18 18,18 0 0 1 -18,-18 18,18 0 0 1 18,-18 18,18 0 0 1 18,18 z"
         id="circle4361" />
      <g
         style="font-style:normal;font-variant:normal;font-weight:normal;font-stretch:normal;font-size:60px;line-height:100%;font-family:'Bitstream Vera Sans';text-align:start;writing-mode:lr-tb;text-anchor:start;fill:#000000;fill-opacity:1;stroke:none"
         id="text4412">
        <path
           d="m 864.18207,700.55811 5.15625,0 0,3.13476 -10.54688,0 0,-4.86328 q -1.58203,2.92969 -4.04297,4.33594 -2.43164,1.37695 -6.03515,1.37695 -5.74219,0 -9.4043,-4.54102 -3.63281,-4.57031 -3.63281,-11.89453 0,-7.32422 3.63281,-11.86523 3.63281,-4.54102 9.4043,-4.54102 3.60351,0 6.03515,1.40625 2.46094,1.37696 4.04297,4.30664 l 0,-4.86328 10.54688,0 0,3.13477 -5.15625,0 0,24.87305 z m -5.39063,-10.89844 0,-3.07617 q 0,-5.59571 -2.16797,-8.55469 -2.13867,-2.95899 -6.24023,-2.95899 -4.16016,0 -6.29883,3.28125 -2.10937,3.28125 -2.10937,9.75586 0,6.44532 2.10937,9.75586 2.13867,3.31055 6.29883,3.31055 4.10156,0 6.24023,-2.92969 2.16797,-2.95898 2.16797,-8.58398 z"
           style="font-style:normal;font-variant:normal;font-weight:normal;font-stretch:normal;font-size:60px;font-family:'DejaVu Serif';-inkscape-font-specification:'DejaVu Serif';text-align:start;text-anchor:start;fill:#000000;fill-opacity:1"
           id="path4306" />
      </g>
    </g>
    <g
       id="g4448">
      <path
         style="font-size:59.9768486px;fill:#000000;fill-opacity:1;stroke:none"
         d="m 476.74945,688.90332 a 18,18 0 0 1 -18,18 18,18 0 0 1 -18,-18 18,18 0 0 1 18,-18 18,18 0 0 1 18,18 z"
         id="circle4425" />
    </g>
    <g
       id="g4515">
      <path
         style="font-size:59.9768486px;fill:#000000;fill-opacity:1;stroke:none"
         d="m 479.18768,31.667507 a 18,18 0 0 1 -18,18 18,18 0 0 1 -18,-18 18,18 0 0 1 18,-18 18,18 0 0 1 18,18 z"
         id="circle4457" />
    </g>
    <g
       id="g4543">
      <path
         style="font-size:59.9768486px;fill:#000000;fill-opacity:1;stroke:none"
         d="m 43.187683,31.667507 a 18,18 0 0 1 -18,18 18,18 0 0 1 -17.9999999,-18 18,18 0 0 1 17.9999999,-18 18,18 0 0 1 18,18 z"
         id="circle4524" />
      <g
         style="font-style:normal;font-variant:normal;font-weight:normal;font-stretch:normal;font-size:60px;line-height:100%;font-family:'Bitstream Vera Sans';text-align:start;writing-mode:lr-tb;text-anchor:start;fill:#000000;fill-opacity:1;stroke:none"
         id="text4526">
        <path
           d="m -16.205872,5.6465263 q 0,-1.3476562 0.966797,-2.34375 0.996094,-0.9960937 2.373047,-0.9960937 1.347656,0 2.314453,0.9960937 0.996094,0.9960938 0.996094,2.34375 0,1.3769532 -0.966797,2.34375 -0.966797,0.9667969 -2.34375,0.9667969 -1.376953,0 -2.373047,-0.9667969 -0.966797,-0.9667968 -0.966797,-2.34375 z m 6.884766,37.7050777 5.0976563,0 0,3.105469 -15.6445313,0 0,-3.105469 5.15625,0 0,-24.902343 -5.15625,0 0,-3.134766 10.546875,0 0,28.037109 z"
           style="font-style:normal;font-variant:normal;font-weight:normal;font-stretch:normal;font-size:60px;font-family:'DejaVu Serif';-inkscape-font-specification:'DejaVu Serif';text-align:start;text-anchor:start;fill:#000000;fill-opacity:1"
           id="path4325" />
      </g>
    </g>
    <g
       id="g4240"
       transform="translate(0.1767767,-1.7163086e-7)">
      <path
         style="font-size:59.9768486px;fill:#000000;fill-opacity:1;stroke:none"
         d="m 915.31268,31.667507 a 18,18 0 0 1 -18,18 18,18 0 0 1 -18,-18 18,18 0 0 1 18,-18 18,18 0 0 1 18,18 z"
         id="circle4552" />
      <g
         style="font-style:normal;font-variant:normal;font-weight:normal;font-stretch:normal;font-size:60px;line-height:100%;font-family:'Bitstream Vera Sans';text-align:start;writing-mode:lr-tb;text-anchor:start;fill:#000000;fill-opacity:1;stroke:none"
         id="text4571">
        <path
           d="m 946.35278,15.314495 10.07813,0 0,28.037109 5.09765,0 0,3.105469 -10.48828,0 0,-5.507812 q -1.49414,3.105468 -3.86718,4.746093 -2.37305,1.611329 -5.50782,1.611329 -5.18554,0 -7.64648,-2.929688 -2.43164,-2.958984 -2.43164,-9.257812 l 0,-16.669922 -4.86328,0 0,-3.134766 10.2832,0 0,18.134766 q 0,5.683593 1.37695,7.792968 1.40625,2.109375 4.98047,2.109375 3.75,0 5.71289,-2.753906 1.96289,-2.753906 1.96289,-7.998047 l 0,-14.15039 -4.6875,0 0,-3.134766 z"
           style="font-style:normal;font-variant:normal;font-weight:normal;font-stretch:normal;font-size:60px;font-family:'DejaVu Serif';-inkscape-font-specification:'DejaVu Serif';text-align:start;text-anchor:start;fill:#000000;fill-opacity:1"
           id="path4332" />
      </g>
    </g>
    <g
       style="font-style:normal;font-variant:normal;font-weight:normal;font-stretch:normal;font-size:60px;line-height:100%;font-family:'Bitstream Vera Sans';text-align:start;writing-mode:lr-tb;text-anchor:start;fill:#000000;fill-opacity:1;stroke:none"
       id="text4290">
      <path
         d="m 326.58121,583.99585 0,-6.5918 -6.94336,0 q -4.01367,0 -5.97656,1.72852 -1.9629,1.72851 -1.9629,5.30273 0,3.25196 1.99219,5.15625 1.99219,1.9043 5.39063,1.9043 3.36914,0 5.41992,-2.08008 2.08008,-2.08008 2.08008,-5.41992 z m 3.19336,5.39062 q -2.43164,2.66602 -5.39063,3.95508 -2.95898,1.28907 -6.62109,1.28907 -5.77149,0 -8.93555,-2.66602 -3.13476,-2.66602 -3.13476,-7.5293 0,-4.83398 3.48632,-7.5 3.51563,-2.66601 9.84375,-2.66601 l 7.5586,0 0,-2.13867 q 0,-3.51563 -2.10938,-5.47852 -2.10937,-1.96289 -5.85937,-1.96289 -3.39844,0 -5.33203,1.46484 -1.9336,1.43555 -2.40235,4.33594 l -2.7832,0 0,-6.29883 q 2.8125,-1.20117 5.44922,-1.78711 2.66601,-0.61523 5.18554,-0.61523 4.13086,0 6.94336,1.28906 2.8418,1.25977 4.45313,3.89649 2.16797,-2.57813 4.98047,-3.86719 2.8125,-1.31836 6.24023,-1.31836 7.06055,0 10.83985,4.36523 3.77929,4.36524 3.89648,12.62696 l -23.20312,0 0,0.23437 q 0,6.29883 2.34375,9.52149 2.37304,3.19335 7.03125,3.19335 3.54492,0 5.80078,-1.8457 2.28515,-1.875 3.19336,-5.53711 l 4.30664,0 q -1.25977,5.12696 -4.7461,7.70508 -3.48633,2.57813 -9.11133,2.57813 -3.57421,0 -6.62109,-1.31836 -3.01758,-1.34766 -5.30273,-3.92579 z m 19.98047,-13.71093 q -0.17579,-5.44922 -2.31446,-8.20313 -2.10937,-2.7832 -6.09375,-2.7832 -3.7207,0 -5.88867,2.7832 -2.13867,2.78321 -2.57812,8.20313 l 16.875,0 z"
         style="font-style:normal;font-variant:normal;font-weight:normal;font-stretch:normal;font-size:60px;font-family:'DejaVu Serif';-inkscape-font-specification:'DejaVu Serif';text-align:start;text-anchor:start;fill:#000000;fill-opacity:1"
         id="path4338" />
    </g>
    <g
       style="font-style:normal;font-variant:normal;font-weight:normal;font-stretch:normal;font-size:60px;line-height:100%;font-family:'Bitstream Vera Sans';text-align:start;writing-mode:lr-tb;text-anchor:start;fill:#000000;fill-opacity:1;stroke:none"
       id="text4298">
      <path
         d="m 176.8325,153.48189 5.09766,0 0,3.10547 -15.64453,0 0,-3.10547 5.15625,0 0,-24.90235 -5.15625,0 0,-3.13476 15.64453,0 0,3.01758 -5.09766,0 0,25.01953 z"
         style="font-style:normal;font-variant:normal;font-weight:normal;font-stretch:normal;font-size:60px;font-family:'DejaVu Serif';-inkscape-font-specification:'DejaVu Serif';text-align:start;text-anchor:start;fill:#000000;fill-opacity:1"
         id="path4341" />
    </g>
    <g
       style="font-style:normal;font-variant:normal;font-weight:normal;font-stretch:normal;font-size:60px;line-height:100%;font-family:'Bitstream Vera Sans';text-align:start;writing-mode:lr-tb;text-anchor:start;fill:#000000;fill-opacity:1;stroke:none"
       id="text4311">
      <path
         d="m 784.57977,128.13437 -8.29101,0 q 4.48242,1.875 6.38672,5.50781 1.90429,3.60352 1.90429,8.20313 0,3.16406 -1.25976,6.06445 -1.25977,2.90039 -3.60352,5.03906 -2.10937,1.96289 -4.89258,3.01758 -2.7539,1.02539 -5.85937,1.02539 -3.13477,0 -5.85938,-1.02539 -2.72461,-1.02539 -4.86328,-3.01758 -2.40234,-2.19726 -3.66211,-5.03906 -1.23047,-2.8418 -1.23047,-6.06445 0,-4.59961 1.9043,-8.20313 1.9043,-3.63281 6.41602,-5.50781 l -8.29102,0 0,-3.13477 13.03711,0 0,3.13477 q -3.48633,1.34766 -5.27344,5.06836 -1.78711,3.6914 -1.78711,8.17383 0,5.41992 2.63672,8.70117 2.66602,3.28125 6.97266,3.28125 4.30664,0 6.94336,-3.28125 2.66601,-3.28125 2.66601,-8.70117 0,-4.51172 -1.78711,-8.20313 -1.78711,-3.6914 -5.24414,-5.03906 l 0,-3.13477 13.03711,0 0,3.13477 z"
         style="font-style:normal;font-variant:normal;font-weight:normal;font-stretch:normal;font-size:60px;font-family:'DejaVu Serif';-inkscape-font-specification:'DejaVu Serif';text-align:start;text-anchor:start;fill:#000000;fill-opacity:1"
         id="path4346" />
    </g>
  </g>
</svg>
